<?xml version="1.0" encoding="utf-8"?>
<!-- Generator: Adobe Illustrator 16.0.0, SVG Export Plug-In . SVG Version: 6.00 Build 0)  -->
<!DOCTYPE svg PUBLIC "-//W3C//DTD SVG 1.1//EN" "http://www.w3.org/Graphics/SVG/1.1/DTD/svg11.dtd">
<svg version="1.1" id="Layer_1" xmlns="http://www.w3.org/2000/svg" xmlns:xlink="http://www.w3.org/1999/xlink" x="0px" y="0px"
	 width="100px" height="100px" viewBox="0 0 100 100" enable-background="new 0 0 100 100" xml:space="preserve">
<g>
	<g>
		<rect x="17.782" y="43.916" fill="#FFFFFF" width="2.417" height="4.961"/>
	</g>
	<g>
		<path fill="#3E4754" d="M21.746,40.137h32.895v6.403H20.094L21.746,40.137z M53.91,40.867H22.313l-1.276,4.94H53.91V40.867z"/>
	</g>
	<g>
		<path fill="#CCCCCC" d="M98.733,51.843c0,0-4.755,9.327-10.979,11.524H5.618l-3.66-11.524H98.733z"/>
	</g>
	<g>
		<polygon fill="#FFFFFF" points="68.567,40.137 72.695,46.54 54.551,46.54 54.551,40.137 		"/>
	</g>
	<g>
		<rect x="50.254" y="40.501" fill="#3E4754" width="0.732" height="3.842"/>
	</g>
	<g>
		<rect x="46.046" y="40.501" fill="#3E4754" width="0.732" height="3.842"/>
	</g>
	<g>
		<rect x="41.84" y="40.501" fill="#3E4754" width="0.73" height="3.842"/>
	</g>
	<g>
		<rect x="37.631" y="40.501" fill="#3E4754" width="0.733" height="3.842"/>
	</g>
	<g>
		<rect x="33.423" y="40.501" fill="#3E4754" width="0.733" height="3.842"/>
	</g>
	<g>
		<rect x="29.217" y="40.501" fill="#3E4754" width="0.733" height="3.842"/>
	</g>
	<g>
		<rect x="25.009" y="40.501" fill="#3E4754" width="0.731" height="3.842"/>
	</g>
	<g>
		<path fill="#AD1D12" d="M91.473,61.17c-1.153,0.951-2.402,1.734-3.718,2.197H5.618L4.921,61.17H91.473z"/>
	</g>
	<g>
		<path fill="#D93225" d="M4.579,60.094h88.102c-0.212,0.209-0.43,0.406-0.646,0.602H4.77L4.579,60.094z"/>
	</g>
	<g>
		<polygon fill="#FFFFFF" points="81.536,51.843 78.717,47.574 58.84,47.574 17.143,47.574 14.764,51.843 		"/>
	</g>
	<g>
		<path fill="#C1E0E0" d="M98.551,52.189c-0.117,0.209-0.285,0.513-0.508,0.891H2.351l-0.392-1.237h96.592V52.189z"/>
	</g>
	<g>
		<polygon fill="#C1E0E0" points="54.551,41.508 54.551,40.137 68.567,40.137 69.449,41.508 		"/>
	</g>
	<g>
		<rect x="20.199" y="43.916" fill="#FFFFFF" width="34.442" height="2.625"/>
	</g>
	<g>
		<polygon fill="#C1E0E0" points="78.717,47.574 17.143,47.574 17.782,46.205 77.809,46.205 		"/>
	</g>
	<g>
		<polygon fill="#3E4754" points="70.042,42.421 67.329,42.421 67.329,45.228 71.849,45.228 		"/>
	</g>
	<g>
		<rect x="73.828" y="48.309" fill="#3E4754" width="2.012" height="2.805"/>
	</g>
	<g>
		<rect x="70.464" y="48.309" fill="#3E4754" width="2.012" height="2.805"/>
	</g>
	<g>
		<rect x="63.727" y="48.309" fill="#0CC2AC" width="2.012" height="3.534"/>
	</g>
	<g>
		<rect x="64.227" y="48.876" fill="#3E4754" width="1.015" height="1.665"/>
	</g>
	<g>
		<rect x="60.359" y="48.309" fill="#3E4754" width="2.015" height="1.193"/>
	</g>
	<g>
		<rect x="60.359" y="49.916" fill="#3E4754" width="2.015" height="1.197"/>
	</g>
	<g>
		<rect x="33.423" y="48.309" fill="#3E4754" width="2.012" height="1.193"/>
	</g>
	<g>
		<rect x="33.423" y="49.916" fill="#3E4754" width="2.012" height="1.197"/>
	</g>
	<g>
		<rect x="50.259" y="48.309" fill="#3E4754" width="2.012" height="1.193"/>
	</g>
	<g>
		<rect x="50.259" y="49.916" fill="#3E4754" width="2.012" height="1.197"/>
	</g>
	<g>
		<rect x="64.158" y="42.421" fill="#3E4754" width="2.012" height="1.196"/>
	</g>
	<g>
		<rect x="64.158" y="44.033" fill="#3E4754" width="2.012" height="1.195"/>
	</g>
	<g>
		<rect x="60.996" y="42.421" fill="#3E4754" width="2.012" height="1.196"/>
	</g>
	<g>
		<rect x="60.996" y="44.033" fill="#3E4754" width="2.012" height="1.195"/>
	</g>
	<g>
		<rect x="57.835" y="42.421" fill="#3E4754" width="2.011" height="1.196"/>
	</g>
	<g>
		<rect x="57.835" y="44.033" fill="#3E4754" width="2.011" height="1.195"/>
	</g>
	<g>
		<rect x="46.924" y="48.309" fill="#3E4754" width="2.011" height="1.193"/>
	</g>
	<g>
		<rect x="46.924" y="49.916" fill="#3E4754" width="2.011" height="1.197"/>
	</g>
	<g>
		<rect x="43.523" y="48.309" fill="#3E4754" width="2.013" height="1.193"/>
	</g>
	<g>
		<rect x="43.523" y="49.916" fill="#3E4754" width="2.013" height="1.197"/>
	</g>
	<g>
		<rect x="26.688" y="48.309" fill="#3E4754" width="2.014" height="1.193"/>
	</g>
	<g>
		<rect x="26.688" y="49.916" fill="#3E4754" width="2.014" height="1.197"/>
	</g>
	<g>
		<rect x="67.097" y="48.309" fill="#3E4754" width="2.011" height="1.193"/>
	</g>
	<g>
		<rect x="67.097" y="49.916" fill="#3E4754" width="2.011" height="1.197"/>
	</g>
	<g>
		<rect x="56.991" y="48.309" fill="#3E4754" width="2.014" height="2.805"/>
	</g>
	<g>
		<rect x="53.625" y="48.309" fill="#3E4754" width="2.016" height="2.805"/>
	</g>
	<g>
		<rect x="40.157" y="48.309" fill="#3E4754" width="2.014" height="2.805"/>
	</g>
	<g>
		<rect x="36.791" y="48.309" fill="#3E4754" width="2.01" height="2.805"/>
	</g>
	<g>
		<rect x="30.055" y="48.309" fill="#0CC2AC" width="2.012" height="3.534"/>
	</g>
	<g>
		<rect x="30.555" y="48.876" fill="#3E4754" width="1.017" height="1.665"/>
	</g>
	<g>
		<rect x="23.322" y="48.309" fill="#3E4754" width="2.012" height="2.805"/>
	</g>
	<g>
		<rect x="19.953" y="48.309" fill="#3E4754" width="2.015" height="2.805"/>
	</g>
	<g>
		<path fill="#D93225" d="M53.914,44.262c0,0.837,0.673,1.512,1.51,1.512c0.836,0,1.512-0.675,1.512-1.512
			c0-0.831-0.676-1.509-1.512-1.509C54.587,42.752,53.914,43.431,53.914,44.262z M54.653,44.262c0-0.424,0.347-0.769,0.771-0.769
			c0.427,0,0.771,0.345,0.771,0.769c0,0.427-0.345,0.771-0.771,0.771C55,45.033,54.653,44.688,54.653,44.262z"/>
	</g>
	<g>
		<path fill="#D93225" d="M18.323,44.262c0,0.837,0.676,1.512,1.511,1.512s1.512-0.675,1.512-1.512c0-0.831-0.676-1.509-1.512-1.509
			S18.323,43.431,18.323,44.262z M19.064,44.262c0-0.424,0.346-0.769,0.77-0.769c0.425,0,0.769,0.345,0.769,0.769
			c0,0.427-0.343,0.771-0.769,0.771C19.41,45.033,19.064,44.688,19.064,44.262z"/>
	</g>
	<g>
		<g>
			<path fill="#AD1D12" d="M83.424,56.738c-0.023,0.801,0.604,1.473,1.406,1.504c0.806,0.021,1.478-0.611,1.504-1.41
				c0.028-0.803-0.604-1.475-1.407-1.499C84.127,55.305,83.455,55.932,83.424,56.738z"/>
		</g>
		<g>
			<path fill="#00B09B" d="M83.711,56.746c-0.02,0.645,0.481,1.184,1.131,1.207c0.647,0.021,1.188-0.486,1.207-1.133
				c0.018-0.645-0.487-1.186-1.136-1.205C84.271,55.594,83.731,56.1,83.711,56.746z"/>
		</g>
		<g>
			<path fill="#0CC2AC" d="M83.909,56.559c-0.018,0.541,0.407,0.988,0.945,1.006c0.538,0.02,0.99-0.404,1.008-0.943
				c0.019-0.541-0.405-0.988-0.949-1.006C84.379,55.596,83.933,56.02,83.909,56.559z"/>
		</g>
	</g>
	<g>
		<g>
			<path fill="#AD1D12" d="M78.627,56.738c-0.024,0.801,0.605,1.473,1.405,1.504c0.803,0.021,1.476-0.611,1.504-1.41
				c0.026-0.803-0.605-1.475-1.407-1.499C79.33,55.305,78.653,55.932,78.627,56.738z"/>
		</g>
		<g>
			<circle fill="#00B09B" cx="80.08" cy="56.783" r="1.17"/>
		</g>
		<g>
			<path fill="#0CC2AC" d="M79.108,56.559c-0.015,0.541,0.406,0.988,0.948,1.006c0.537,0.02,0.991-0.404,1.005-0.943
				c0.019-0.541-0.405-0.988-0.943-1.006C79.581,55.596,79.132,56.02,79.108,56.559z"/>
		</g>
	</g>
	<g>
		<g>
			<path fill="#AD1D12" d="M73.828,56.738c-0.025,0.801,0.604,1.473,1.406,1.504c0.805,0.021,1.477-0.611,1.505-1.41
				c0.025-0.803-0.604-1.475-1.407-1.499C74.535,55.305,73.855,55.932,73.828,56.738z"/>
		</g>
		<g>
			<path fill="#00B09B" d="M74.113,56.746c-0.017,0.645,0.487,1.184,1.134,1.207c0.643,0.021,1.185-0.486,1.206-1.133
				c0.019-0.645-0.485-1.186-1.134-1.205C74.674,55.594,74.137,56.1,74.113,56.746z"/>
		</g>
		<g>
			<path fill="#0CC2AC" d="M74.317,56.559c-0.022,0.541,0.402,0.988,0.941,1.006c0.536,0.02,0.989-0.404,1.008-0.943
				c0.018-0.541-0.407-0.988-0.947-1.006C74.781,55.596,74.335,56.02,74.317,56.559z"/>
		</g>
	</g>
	<g>
		<g>
			<path fill="#AD1D12" d="M69.03,56.738c-0.024,0.801,0.605,1.473,1.409,1.504c0.801,0.021,1.477-0.611,1.5-1.41
				c0.026-0.803-0.603-1.475-1.401-1.499C69.733,55.305,69.059,55.932,69.03,56.738z"/>
		</g>
		<g>
			<path fill="#00B09B" d="M69.313,56.746c-0.017,0.645,0.49,1.184,1.134,1.207c0.647,0.021,1.188-0.486,1.208-1.133
				c0.02-0.645-0.488-1.186-1.134-1.205C69.875,55.594,69.336,56.1,69.313,56.746z"/>
		</g>
		<g>
			<path fill="#0CC2AC" d="M69.517,56.559c-0.018,0.541,0.406,0.988,0.947,1.006c0.533,0.02,0.988-0.404,1.006-0.943
				c0.017-0.541-0.408-0.988-0.948-1.006C69.986,55.596,69.536,56.02,69.517,56.559z"/>
		</g>
	</g>
	<g>
		<g>
			<path fill="#AD1D12" d="M64.234,56.738c-0.025,0.801,0.604,1.473,1.405,1.504c0.805,0.021,1.475-0.611,1.505-1.41
				c0.024-0.803-0.605-1.475-1.407-1.499C64.937,55.305,64.258,55.932,64.234,56.738z"/>
		</g>
		<g>
			<circle fill="#00B09B" cx="65.688" cy="56.783" r="1.171"/>
		</g>
		<g>
			<path fill="#0CC2AC" d="M64.72,56.559c-0.02,0.541,0.407,0.988,0.945,1.006c0.533,0.02,0.988-0.404,1.006-0.943
				c0.018-0.541-0.409-0.988-0.947-1.006C65.188,55.596,64.741,56.02,64.72,56.559z"/>
		</g>
	</g>
	<g>
		<g>
			<path fill="#AD1D12" d="M59.436,56.738c-0.023,0.801,0.603,1.473,1.408,1.504c0.801,0.021,1.475-0.611,1.5-1.41
				c0.028-0.803-0.604-1.475-1.404-1.499C60.136,55.305,59.462,55.932,59.436,56.738z"/>
		</g>
		<g>
			<path fill="#00B09B" d="M59.721,56.746c-0.019,0.645,0.487,1.184,1.131,1.207c0.646,0.021,1.187-0.486,1.209-1.133
				c0.017-0.645-0.485-1.186-1.136-1.205C60.281,55.594,59.741,56.1,59.721,56.746z"/>
		</g>
		<g>
			<path fill="#0CC2AC" d="M59.921,56.559c-0.019,0.541,0.404,0.988,0.945,1.006c0.537,0.02,0.989-0.404,1.007-0.943
				c0.017-0.541-0.407-0.988-0.948-1.006C60.391,55.596,59.94,56.02,59.921,56.559z"/>
		</g>
	</g>
	<g>
		<g>
			<path fill="#AD1D12" d="M54.641,56.738c-0.028,0.801,0.602,1.473,1.402,1.504c0.805,0.021,1.477-0.611,1.505-1.41
				c0.025-0.803-0.604-1.475-1.405-1.499C55.341,55.305,54.666,55.932,54.641,56.738z"/>
		</g>
		<g>
			<path fill="#00B09B" d="M54.921,56.746c-0.02,0.645,0.488,1.184,1.134,1.207c0.646,0.021,1.186-0.486,1.208-1.133
				c0.019-0.645-0.487-1.186-1.135-1.205C55.481,55.594,54.947,56.1,54.921,56.746z"/>
		</g>
		<g>
			<path fill="#0CC2AC" d="M55.124,56.559c-0.018,0.541,0.406,0.988,0.943,1.006c0.539,0.02,0.991-0.404,1.005-0.943
				c0.022-0.541-0.406-0.988-0.944-1.006C55.592,55.596,55.143,56.02,55.124,56.559z"/>
		</g>
	</g>
	<g>
		<g>
			<path fill="#AD1D12" d="M49.84,56.738c-0.029,0.801,0.606,1.473,1.406,1.504c0.802,0.021,1.475-0.611,1.504-1.41
				c0.024-0.803-0.605-1.475-1.41-1.499C50.542,55.305,49.867,55.932,49.84,56.738z"/>
		</g>
		<g>
			<path fill="#00B09B" d="M50.124,56.746c-0.019,0.645,0.489,1.184,1.134,1.207c0.643,0.021,1.185-0.486,1.207-1.133
				c0.019-0.645-0.486-1.186-1.133-1.205C50.684,55.594,50.147,56.1,50.124,56.746z"/>
		</g>
		<g>
			<path fill="#0CC2AC" d="M50.324,56.559c-0.017,0.541,0.408,0.988,0.945,1.006c0.538,0.02,0.989-0.404,1.006-0.943
				c0.019-0.541-0.404-0.988-0.943-1.006C50.797,55.596,50.346,56.02,50.324,56.559z"/>
		</g>
	</g>
	<g>
		<g>
			<path fill="#AD1D12" d="M45.042,56.738c-0.026,0.801,0.604,1.473,1.407,1.504c0.804,0.021,1.475-0.611,1.5-1.41
				c0.026-0.803-0.603-1.475-1.405-1.499C45.745,55.305,45.069,55.932,45.042,56.738z"/>
		</g>
		<g>
			<path fill="#00B09B" d="M45.326,56.746c-0.02,0.645,0.487,1.184,1.132,1.207c0.646,0.021,1.184-0.486,1.208-1.133
				c0.017-0.645-0.487-1.186-1.134-1.205C45.889,55.594,45.351,56.1,45.326,56.746z"/>
		</g>
		<g>
			<path fill="#0CC2AC" d="M45.526,56.559c-0.016,0.541,0.408,0.988,0.945,1.006c0.536,0.02,0.991-0.404,1.007-0.943
				c0.02-0.541-0.406-0.988-0.947-1.006C45.997,55.596,45.548,56.02,45.526,56.559z"/>
		</g>
	</g>
	<g>
		<g>
			<path fill="#AD1D12" d="M40.247,56.738c-0.027,0.801,0.601,1.473,1.404,1.504c0.803,0.021,1.477-0.611,1.501-1.41
				c0.026-0.803-0.604-1.475-1.405-1.499C40.947,55.305,40.271,55.932,40.247,56.738z"/>
		</g>
		<g>
			<path fill="#00B09B" d="M40.53,56.746c-0.021,0.645,0.486,1.184,1.13,1.207c0.647,0.021,1.186-0.486,1.208-1.133
				c0.016-0.645-0.486-1.186-1.134-1.205C41.09,55.594,40.551,56.1,40.53,56.746z"/>
		</g>
		<g>
			<path fill="#0CC2AC" d="M40.729,56.559c-0.018,0.541,0.406,0.988,0.945,1.006c0.538,0.02,0.99-0.404,1.007-0.943
				c0.017-0.541-0.407-0.988-0.946-1.006C41.199,55.596,40.75,56.02,40.729,56.559z"/>
		</g>
	</g>
	<g>
		<g>
			<path fill="#AD1D12" d="M35.448,56.738c-0.027,0.801,0.602,1.473,1.406,1.504c0.801,0.021,1.475-0.611,1.501-1.41
				c0.027-0.803-0.604-1.475-1.406-1.499C36.148,55.305,35.473,55.932,35.448,56.738z"/>
		</g>
		<g>
			<circle fill="#00B09B" cx="36.901" cy="56.783" r="1.171"/>
		</g>
		<g>
			<circle fill="#0CC2AC" cx="36.907" cy="56.59" r="0.977"/>
		</g>
	</g>
	<g>
		<g>
			<path fill="#AD1D12" d="M30.649,56.738c-0.025,0.801,0.603,1.473,1.405,1.504c0.805,0.021,1.478-0.611,1.504-1.41
				c0.026-0.803-0.605-1.475-1.405-1.499C31.352,55.305,30.676,55.932,30.649,56.738z"/>
		</g>
		<g>
			<path fill="#00B09B" d="M30.935,56.746c-0.021,0.645,0.485,1.184,1.131,1.207c0.645,0.021,1.185-0.486,1.208-1.133
				c0.017-0.645-0.487-1.186-1.136-1.205C31.494,55.594,30.955,56.1,30.935,56.746z"/>
		</g>
		<g>
			<path fill="#0CC2AC" d="M31.135,56.559c-0.02,0.541,0.406,0.988,0.945,1.006c0.535,0.02,0.989-0.404,1.005-0.943
				c0.018-0.541-0.406-0.988-0.947-1.006C31.604,55.596,31.153,56.02,31.135,56.559z"/>
		</g>
	</g>
	<g>
		<g>
			<path fill="#AD1D12" d="M25.853,56.738c-0.026,0.801,0.603,1.473,1.404,1.504c0.803,0.021,1.476-0.611,1.503-1.41
				c0.027-0.803-0.604-1.475-1.406-1.499C26.553,55.305,25.877,55.932,25.853,56.738z"/>
		</g>
		<g>
			<path fill="#00B09B" d="M26.136,56.746c-0.02,0.645,0.487,1.184,1.131,1.207c0.646,0.021,1.186-0.486,1.209-1.133
				c0.018-0.645-0.487-1.186-1.135-1.205C26.695,55.594,26.159,56.1,26.136,56.746z"/>
		</g>
		<g>
			<path fill="#0CC2AC" d="M26.336,56.559c-0.017,0.541,0.408,0.988,0.944,1.006c0.537,0.02,0.991-0.404,1.008-0.943
				c0.018-0.541-0.407-0.988-0.947-1.006C26.806,55.596,26.356,56.02,26.336,56.559z"/>
		</g>
	</g>
	<g>
		<g>
			<path fill="#AD1D12" d="M21.053,56.738c-0.026,0.801,0.603,1.473,1.407,1.504c0.802,0.021,1.478-0.611,1.5-1.41
				c0.027-0.803-0.603-1.475-1.404-1.499C21.755,55.305,21.08,55.932,21.053,56.738z"/>
		</g>
		<g>
			<path fill="#00B09B" d="M21.338,56.746c-0.021,0.645,0.486,1.184,1.131,1.207c0.646,0.021,1.186-0.486,1.207-1.133
				c0.019-0.645-0.485-1.186-1.134-1.205C21.899,55.594,21.36,56.1,21.338,56.746z"/>
		</g>
		<g>
			<path fill="#0CC2AC" d="M21.538,56.559c-0.017,0.541,0.407,0.988,0.945,1.006c0.538,0.02,0.99-0.404,1.006-0.943
				c0.018-0.541-0.406-0.988-0.947-1.006C22.007,55.596,21.558,56.02,21.538,56.559z"/>
		</g>
	</g>
	<g>
		<g>
			<path fill="#AD1D12" d="M16.256,56.738c-0.027,0.801,0.602,1.473,1.404,1.504c0.804,0.021,1.478-0.611,1.503-1.41
				c0.027-0.803-0.603-1.475-1.406-1.499C16.957,55.305,16.283,55.932,16.256,56.738z"/>
		</g>
		<g>
			<path fill="#00B09B" d="M16.54,56.746c-0.019,0.645,0.487,1.184,1.132,1.207c0.644,0.021,1.185-0.486,1.208-1.133
				c0.017-0.645-0.487-1.186-1.134-1.205C17.101,55.594,16.564,56.1,16.54,56.746z"/>
		</g>
		<g>
			<circle fill="#0CC2AC" cx="17.716" cy="56.59" r="0.976"/>
		</g>
	</g>
	<g>
		<g>
			<path fill="#AD1D12" d="M11.458,56.738c-0.026,0.801,0.603,1.473,1.405,1.504c0.805,0.021,1.476-0.611,1.503-1.41
				c0.028-0.803-0.603-1.475-1.404-1.499C12.16,55.305,11.483,55.932,11.458,56.738z"/>
		</g>
		<g>
			<path fill="#00B09B" d="M11.742,56.746c-0.02,0.645,0.487,1.184,1.132,1.207c0.646,0.021,1.186-0.486,1.208-1.133
				c0.017-0.645-0.486-1.186-1.134-1.205C12.305,55.594,11.766,56.1,11.742,56.746z"/>
		</g>
		<g>
			<path fill="#0CC2AC" d="M11.942,56.559c-0.016,0.541,0.407,0.988,0.946,1.006c0.537,0.02,0.99-0.404,1.005-0.943
				c0.021-0.541-0.405-0.988-0.944-1.006C12.413,55.596,11.963,56.02,11.942,56.559z"/>
		</g>
	</g>
	<g>
		<g>
			<path fill="#AD1D12" d="M6.66,56.738c-0.026,0.801,0.604,1.473,1.406,1.504c0.803,0.021,1.478-0.611,1.502-1.41
				c0.028-0.803-0.603-1.475-1.405-1.499C7.363,55.305,6.686,55.932,6.66,56.738z"/>
		</g>
		<g>
			<path fill="#00B09B" d="M6.946,56.746c-0.021,0.645,0.486,1.184,1.131,1.207c0.645,0.021,1.186-0.486,1.208-1.133
				c0.018-0.645-0.486-1.186-1.135-1.205C7.504,55.594,6.967,56.1,6.946,56.746z"/>
		</g>
		<g>
			<path fill="#0CC2AC" d="M7.144,56.559c-0.017,0.541,0.409,0.988,0.945,1.006c0.538,0.02,0.991-0.404,1.008-0.943
				c0.017-0.541-0.407-0.988-0.947-1.006C7.614,55.596,7.165,56.02,7.144,56.559z"/>
		</g>
	</g>
	<g>
		<path fill="#3E4754" d="M92.076,55.33c0,0.606,0.489,1.098,1.097,1.098c0.606,0,1.1-0.491,1.1-1.098
			c0-0.607-0.493-1.098-1.1-1.098C92.565,54.232,92.076,54.723,92.076,55.33z M92.694,55.33c0-0.264,0.215-0.479,0.479-0.479
			c0.268,0,0.48,0.215,0.48,0.479s-0.213,0.479-0.48,0.479C92.909,55.81,92.694,55.594,92.694,55.33z"/>
	</g>
	<g>
		<polygon fill="#3E4754" points="79.2,48.309 77.24,48.309 77.24,51.113 81.063,51.113 		"/>
	</g>
	<g>
		<polygon fill="#3E4754" points="16.736,48.309 18.652,48.309 18.652,51.113 15.171,51.113 		"/>
	</g>
</g>
</svg>
